# xmcd CD database file
#
# Track frame offsets:
#	150
#	25476
#	59314
#	71926
#	97398
#	119230
#	139617
#	162176
#	181874
#	203341
#
# Disc length: 2848 seconds
#
# Revision: 0
# Processed by: cddbd v1.5.2PL0 Copyright (c) Steve Scherf et al.
# Submitted via: CDex 1.51
#
DISCID=950b1e0a
DTITLE=Bernard Margarit - Matsya
DYEAR=2012
DGENRE=Jazz
TTITLE0=Gokarna
TTITLE1=Karagouna
TTITLE2=Ganesha
TTITLE3=Matsya
TTITLE4=Egaro
TTITLE5=Margo's Mind
TTITLE6=Song For Johann
TTITLE7=Cremad Song
TTITLE8=Bobo's House
TTITLE9=White Wind
EXTD=YEAR: 2012
EXTT0=
EXTT1=
EXTT2=
EXTT3=
EXTT4=
EXTT5=
EXTT6=
EXTT7=
EXTT8=
EXTT9=
PLAYORDER=
